<svg xmlns="http://www.w3.org/2000/svg" viewBox="0 0 320 140" role="img" aria-label="クラシックカー イラスト（仮・差し替え前提）">
  <!-- 仮素材(ライセンス確認中): 特定車種の意匠を再現しない汎用クラシックカーのシルエット。
       検収前に社長がポルシェイラスト使用可否を確定 → 可なら正式PNG、不可ならこの汎用イラストで運用。
       ファイル名に -temp を含めgrep検出可能にしている。命名は porsche-temp.png ではなく .svg（下記報告参照）。 -->
  <g fill="#c9ced6">
    <path d="M18 96 C40 70 70 58 120 56 C150 55 175 48 200 40 C230 31 262 34 286 52 C300 62 306 74 304 90 L300 96 Z"/>
  </g>
  <path d="M18 96 C40 70 70 58 120 56 C150 55 175 48 200 40 C230 31 262 34 286 52 C300 62 306 74 304 90"
        fill="none" stroke="#1a408c" stroke-width="4" stroke-linecap="round" stroke-linejoin="round"/>
  <path d="M96 57 C120 40 168 40 196 44 L182 56 Z" fill="#e6eaf0" stroke="#1a408c" stroke-width="3"/>
  <rect x="16" y="96" width="290" height="6" rx="3" fill="#1a408c"/>
  <circle cx="86" cy="102" r="20" fill="#2a2f38"/><circle cx="86" cy="102" r="8" fill="#c9ced6"/>
  <circle cx="240" cy="102" r="20" fill="#2a2f38"/><circle cx="240" cy="102" r="8" fill="#c9ced6"/>
  <text x="160" y="130" fill="#8a919c" font-family="Arial,sans-serif" font-size="11" letter-spacing="2" text-anchor="middle">TEMP ILLUSTRATION</text>
</svg>
